<?xml version="1.0" encoding="utf-8"?>
<!-- Uploaded to: SVG Repo, www.svgrepo.com, Generator: SVG Repo Mixer Tools -->
<svg fill="#000000" version="1.1" id="Layer_1" xmlns="http://www.w3.org/2000/svg" xmlns:xlink="http://www.w3.org/1999/xlink" 
	 viewBox="0 0 100 100" xml:space="preserve">
<g>
	<path d="M39,33.5h-0.2c-0.5,0-0.8,0.4-0.8,0.8v0.8c0,0.5,0.4,0.8,0.8,0.8h25.1c0.5,0,0.8-0.4,0.8-0.8v-0.8c0-0.5-0.4-0.8-0.8-0.8
		h-0.3c1.1-2,2.6-4.6,2.7-5.5c1-8.2-8.9-9.6-12.2-15.4c-0.6-1.2-1-2.2-1.5-3.5c-0.1-0.6-1.2-3.5-1-4.7c0.6-0.1,1.2-0.7,1.2-1.5
		c0-0.9-0.7-1.5-1.5-1.5s-1.5,0.7-1.5,1.5c0,0.7,0.4,1.3,1.2,1.5c0,1.2-0.9,3.9-1,4.7c-0.3,1.2-0.7,2.3-1.5,3.5
		c-3.3,5.7-13.3,7.1-12.2,15.4C36.4,28.9,37.8,31.5,39,33.5z"/>
	<path d="M76.5,39.5c-0.4-0.7-0.7-1.5-0.9-2.2c-0.1-0.4-0.7-2.2-0.7-2.9c0.4-0.1,0.7-0.4,0.7-0.9c0-0.6-0.4-1-1-1s-1,0.4-1,1
		c0,0.4,0.3,0.9,0.7,0.9c0,0.7-0.6,2.6-0.7,2.9c-0.3,0.7-0.4,1.5-0.9,2.2c-2.2,3.6-8.4,4.7-7.9,9.9c0.1,0.5,1,2.1,1.7,3.4
		c-0.2,0.2-0.4,0.4-0.4,0.7v0.2c0,0.5,0.4,0.8,0.8,0.8h0.5h14.1h0.8c0.5,0,0.8-0.4,0.8-0.8v-0.2c0-0.4-0.3-0.7-0.6-0.8
		c0.7-1.2,1.5-2.7,1.6-3.3C85,44.1,78.6,43.1,76.5,39.5z"/>
	<rect x="20.3" y="56.7" width="14" height="11.1"/>
	<rect x="67.7" y="56.8" width="14.1" height="11.1"/>
	<path d="M18.6,53.5v0.2c0,0.5,0.4,0.8,0.8,0.8h15.4c0.5,0,0.8-0.4,0.8-0.8v-0.2c0-0.3-0.2-0.6-0.5-0.8c0.7-1.3,1.7-3,1.8-3.6
		c0.6-5.2-5.7-6.3-7.9-9.9c-0.4-0.7-0.7-1.5-0.9-2.2c-0.1-0.4-0.7-2.2-0.7-2.9c0.4-0.1,0.7-0.4,0.7-0.9c0-0.6-0.4-1-1-1
		c-0.6,0-1,0.4-1,1c0,0.4,0.3,0.9,0.7,0.9c0,0.7-0.6,2.6-0.7,2.9c-0.3,0.7-0.4,1.5-0.9,2.2c-2.2,3.6-8.4,4.7-7.9,9.9
		c0.1,0.6,1.1,2.3,1.9,3.6C18.9,52.7,18.6,53,18.6,53.5z"/>
</g>
<polygon points="83.4,95.2 83.4,69.3 65,69.3 65,57 62.4,57 62.4,39.1 62.3,39.1 40.6,39.1 40.6,57 37.7,57 37.7,69.3 18.6,69.3 
	18.6,95.2 "/>
</svg>